<?xml version="1.0" encoding="utf-8"?>
<svg xmlns="http://www.w3.org/2000/svg" xmlns:xlink="http://www.w3.org/1999/xlink" version="1.1" style="width:0;height:0;position:absolute;overflow:hidden;">
  <defs>
<symbol viewBox="0 0 1536 1536" aria-labelledby="hvsi-awesome-envelope-square-title" id="si-awesome-envelope-square"><title id="hvsi-awesome-envelope-square-title">icon envelope-square</title><path d="M1248 0q119 0 203.5 84.5T1536 288v960q0 119-84.5 203.5T1248 1536H288q-119 0-203.5-84.5T0 1248V288Q0 169 84.5 84.5T288 0h960zm32 1056V620q-31 35-64 55-34 22-132.5 85T932 859q-98 69-164 69t-164-69q-46-32-141.5-92.5T320 674q-12-8-33-27t-31-27v436q0 40 28 68t68 28h832q40 0 68-28t28-68zm0-573q0-41-27.5-70t-68.5-29H352q-40 0-68 28t-28 68q0 37 30.5 76.5T354 621q47 32 137.5 89T621 793q3 2 17 11.5t21 14 21 13 23.5 13T725 854t22.5 7.5T768 864t20.5-2.5T811 854t21.5-9.5 23.5-13 21-13 21-14 17-11.5l267-174q35-23 66.5-62.5T1280 483z"/></symbol>
<symbol viewBox="0 0 1536 1536" aria-labelledby="krsi-awesome-github-square-title" id="si-awesome-github-square"><title id="krsi-awesome-github-square-title">icon github-square</title><path d="M519 1072q4-6-3-13-9-7-14-2-4 6 3 13 9 7 14 2zm-28-41q-5-7-12-4-6 4 0 12 7 8 12 5 6-4 0-13zm-41-40q2-4-5-8-7-2-8 2-3 5 4 8 8 2 9-2zm21 23q2-1 1.5-4.5t-3.5-5.5q-6-7-10-3t1 11q6 6 11 2zm86 75q2-7-9-11-9-3-13 4-2 7 9 11 9 3 13-4zm42 3q0-8-12-8-10 0-10 8t11 8 11-8zm39-7q-2-7-13-5t-9 9q2 8 12 6t10-10zm642-317q0-212-150-362T768 256 406 406 256 768q0 167 98 300.5T606 1254q18 3 26.5-5t8.5-20q0-52-1-95-6 1-15.5 2.5t-35.5 2-48-4-43.5-20T468 1073q-23-59-57-74-2-1-4.5-3.5l-8-8-7-9.5 4-7.5L415 967q6 0 15 2t30 15.5 33 35.5q16 28 37.5 42t43.5 14 38-3.5 30-9.5q7-47 33-69-49-6-86-18.5t-73-39-55.5-76T441 741q0-79 53-137-24-62 5-136 19-6 54.5 7.5T614 505l26 16q58-17 128-17t128 17q11-7 28.5-18t55.5-26 57-9q29 74 5 136 53 58 53 137 0 57-14 100.5t-35.5 70T992 956t-62.5 26-68.5 12q35 31 35 95 0 40-.5 89t-.5 51q0 12 8.5 20t26.5 5q154-52 252-185.5t98-300.5zm256-480v960q0 119-84.5 203.5T1248 1536H288q-119 0-203.5-84.5T0 1248V288Q0 169 84.5 84.5T288 0h960q119 0 203.5 84.5T1536 288z"/></symbol>
<symbol viewBox="0 0 1536 1536" aria-labelledby="npsi-awesome-linkedin-square-title" id="si-awesome-linkedin-square"><title id="npsi-awesome-linkedin-square-title">icon linkedin-square</title><path d="M237 1286h231V592H237v694zm246-908q-1-52-36-86t-93-34-94.5 34-36.5 86q0 51 35.5 85.5T351 498h1q59 0 95-34.5t36-85.5zm585 908h231V888q0-154-73-233t-193-79q-136 0-209 117h2V592H595q3 66 0 694h231V898q0-38 7-56 15-35 45-59.5t74-24.5q116 0 116 157v371zm468-998v960q0 119-84.5 203.5T1248 1536H288q-119 0-203.5-84.5T0 1248V288Q0 169 84.5 84.5T288 0h960q119 0 203.5 84.5T1536 288z"/></symbol>
  </defs>
</svg>
